<svg xmlns="http://www.w3.org/2000/svg" width="1276" height="1463" viewBox="0 0 1276 1463"><defs><mask id="1uxab" width="2" height="2" x="-1" y="-1"><path fill="#fff" d="M34 0h1327v1463H34z"/><path d="M34 0h1327v1463H34s116-407.762 116-789C150 325.18 34 0 34 0z"/></mask><filter id="1uxaa" width="1433" height="1569" x="-19" y="-53" filterUnits="userSpaceOnUse"><feOffset in="SourceGraphic" result="FeOffset1043Out"/><feGaussianBlur in="FeOffset1043Out" result="FeGaussianBlur1044Out" stdDeviation="17.2 17.2"/></filter></defs><g><g><g filter="url(#1uxaa)"><path fill="none" d="M34 0h1327v1463H34s116-407.762 116-789C150 325.18 34 0 34 0z" mask="url(&quot;#1uxab&quot;)"/><path fill="#639bd9" fill-opacity=".31" d="M34 0h1327v1463H34s116-407.762 116-789C150 325.18 34 0 34 0z"/></g><path fill="#10172f" d="M34 0h1327v1463H34s116-407.762 116-789C150 325.18 34 0 34 0z"/></g></g></svg>